<svg width="18" height="20" viewBox="0 0 18 20" fill="none" xmlns="http://www.w3.org/2000/svg">
<path d="M8.25 11V20H4.25C2.45507 20 1 18.5449 1 16.75V11H8.25ZM17 11V16.75C17 18.5449 15.5449 20 13.75 20H9.75V11H17ZM11.5 0C13.2949 0 14.75 1.45507 14.75 3.25C14.75 3.89498 14.5621 4.49607 14.2381 5.00154L16.75 5C17.4404 5 18 5.46637 18 6.04167V8.95833C18 9.53363 17.4404 10 16.75 10L9.75 9.999V5H8.25V9.999L1.25 10C0.559644 10 0 9.53363 0 8.95833V6.04167C0 5.46637 0.559644 5 1.25 5L3.7619 5.00154C3.43788 4.49607 3.25 3.89498 3.25 3.25C3.25 1.45507 4.70507 0 6.5 0C7.50555 0 8.40443 0.456664 9.00058 1.17391C9.59557 0.456664 10.4945 0 11.5 0ZM6.5 1.5C5.5335 1.5 4.75 2.2835 4.75 3.25C4.75 4.16817 5.45711 4.92119 6.35647 4.9942L6.5 5H8.25V3.25L8.2442 3.10647C8.17119 2.20711 7.41817 1.5 6.5 1.5ZM11.5 1.5C10.5335 1.5 9.75 2.2835 9.75 3.25V5H11.5C12.4665 5 13.25 4.2165 13.25 3.25C13.25 2.2835 12.4665 1.5 11.5 1.5Z" fill="#B2B7C7"/>
</svg>
