<svg width="42" height="28" viewBox="0 0 42 28" fill="none" xmlns="http://www.w3.org/2000/svg">
<path d="M16.5098 6.66235H25.494V21.3362H16.5098V6.66235Z" fill="#FF5F00"/>
<path d="M17.4352 14.0006C17.4341 12.5877 17.7544 11.193 18.3719 9.92209C18.9894 8.6512 19.8879 7.53741 20.9994 6.66503C19.6227 5.58315 17.9695 4.91039 16.2286 4.72364C14.4877 4.5369 12.7294 4.8437 11.1547 5.60898C9.5799 6.37427 8.25221 7.56716 7.32333 9.05132C6.39445 10.5355 5.90186 12.251 5.90186 14.0019C5.90186 15.7528 6.39445 17.4683 7.32333 18.9525C8.25221 20.4367 9.5799 21.6295 11.1547 22.3948C12.7294 23.1601 14.4877 23.4669 16.2286 23.2802C17.9695 23.0934 19.6227 22.4207 20.9994 21.3388C19.8875 20.4661 18.9889 19.3519 18.3714 18.0806C17.7539 16.8092 17.4337 15.414 17.4352 14.0006V14.0006Z" fill="#EB001B"/>
<path d="M35.2064 19.7835V19.4829H35.336V19.4207H35.0276V19.4829H35.1494V19.7836L35.2064 19.7835ZM35.8052 19.7835V19.4207H35.7119L35.603 19.6799L35.4941 19.4207H35.4008V19.7835H35.4682V19.5088L35.5693 19.7447H35.6393L35.7404 19.5088V19.7835H35.8052Z" fill="#F79E1B"/>
<path d="M36.0982 14.0007C36.0981 15.7517 35.6054 17.4673 34.6764 18.9516C33.7473 20.4358 32.4194 21.6286 30.8445 22.3938C29.2695 23.159 27.511 23.4656 25.77 23.2786C24.029 23.0915 22.3758 22.4185 20.9993 21.3362C22.1103 20.4631 23.0085 19.349 23.6262 18.078C24.2438 16.8071 24.5647 15.4124 24.5647 13.9993C24.5647 12.5863 24.2438 11.1916 23.6262 9.92067C23.0085 8.64971 22.1103 7.53563 20.9993 6.66247C22.3758 5.58024 24.029 4.90715 25.77 4.72013C27.511 4.53311 29.2695 4.83972 30.8445 5.6049C32.4195 6.37007 33.7474 7.56295 34.6764 9.04717C35.6055 10.5314 36.0981 12.2471 36.0982 13.9981V14.0007Z" fill="#F79E1B"/>
</svg>
