<svg width="19" height="18" viewBox="0 0 19 18" fill="none" xmlns="http://www.w3.org/2000/svg">
<path d="M0.5 3.25C0.5 1.45507 1.95507 0 3.75 0H15.25C17.0449 0 18.5 1.45507 18.5 3.25V14.75C18.5 16.5449 17.0449 18 15.25 18H3.75C1.95507 18 0.5 16.5449 0.5 14.75V3.25ZM3.75 1.5C2.7835 1.5 2 2.2835 2 3.25V8.25H8.75V1.5H3.75ZM8.75 9.75H2V14.75C2 15.7165 2.7835 16.5 3.75 16.5H8.75V9.75ZM10.25 9.75V16.5H15.25C16.2165 16.5 17 15.7165 17 14.75V9.75H10.25ZM17 8.25V3.25C17 2.2835 16.2165 1.5 15.25 1.5H10.25V8.25H17Z" fill="#060F27"/>
</svg>
