<svg width="18" height="21" viewBox="0 0 18 21" fill="none" xmlns="http://www.w3.org/2000/svg">
<path d="M8.99987 0.996216C13.0498 0.996216 16.3565 4.19096 16.4957 8.24527L16.4999 8.49622V12.5932L17.8799 15.7492C17.9489 15.9071 17.9846 16.0776 17.9846 16.25C17.9846 16.9403 17.4249 17.5 16.7346 17.5L11.9999 17.5015C11.9999 19.1583 10.6567 20.5015 8.99987 20.5015C7.40219 20.5015 6.09621 19.2526 6.00496 17.6778L5.99941 17.4992L1.27473 17.5C1.10339 17.5 0.933883 17.4648 0.77673 17.3965C0.143528 17.1215 -0.146821 16.3852 0.128218 15.752L1.49987 12.5941V8.49611C1.50046 4.34132 4.85195 0.996216 8.99987 0.996216ZM10.4994 17.4992L7.49987 17.5015C7.49987 18.3299 8.17144 19.0015 8.99987 19.0015C9.77956 19.0015 10.4203 18.4066 10.493 17.6459L10.4994 17.4992ZM8.99987 2.49622C5.67971 2.49622 3.00034 5.17047 2.99987 8.49622V12.9058L1.65589 16H16.3524L14.9999 12.9068L15 8.50907L14.9962 8.28387C14.8852 5.0504 12.2414 2.49622 8.99987 2.49622Z" fill="#060F27"/>
</svg>
