<svg width="17" height="17" viewBox="0 0 17 17" fill="none" xmlns="http://www.w3.org/2000/svg">
<path d="M0.5 2.25C0.5 1.00736 1.50736 0 2.75 0H11.25C12.4926 0 13.5 1.00736 13.5 2.25V10H17V13.25C17 15.0449 15.5449 16.5 13.75 16.5H3.75C1.95507 16.5 0.5 15.0449 0.5 13.25V2.25ZM13.5 11.5V15H13.75C14.7165 15 15.5 14.2165 15.5 13.25V11.5H13.5ZM12 15V2.25C12 1.83579 11.6642 1.5 11.25 1.5H2.75C2.33579 1.5 2 1.83579 2 2.25V13.25C2 14.2165 2.7835 15 3.75 15H12ZM3.50001 4.75C3.50001 4.33579 3.8358 4 4.25001 4H9.75001C10.1642 4 10.5 4.33579 10.5 4.75C10.5 5.16422 10.1642 5.5 9.75001 5.5H4.25001C3.8358 5.5 3.50001 5.16422 3.50001 4.75ZM3.50001 8.25C3.50001 7.83579 3.8358 7.5 4.25001 7.5H9.75001C10.1642 7.5 10.5 7.83579 10.5 8.25C10.5 8.66422 10.1642 9 9.75001 9H4.25001C3.8358 9 3.50001 8.66422 3.50001 8.25ZM3.50001 11.75C3.50001 11.3358 3.8358 11 4.25001 11H6.75001C7.16423 11 7.50001 11.3358 7.50001 11.75C7.50001 12.1642 7.16423 12.5 6.75001 12.5H4.25001C3.8358 12.5 3.50001 12.1642 3.50001 11.75Z" fill="#060F27"/>
</svg>
