<svg width="20" height="20" viewBox="0 0 20 20" fill="none" xmlns="http://www.w3.org/2000/svg">
<path d="M3.69362 10L0.299335 1.27187C0.0630953 0.664393 0.655438 0.0834574 1.2414 0.289952L1.33375 0.329211L19.3337 9.32921C19.852 9.58833 19.8844 10.2979 19.4309 10.6133L19.3337 10.6709L1.33375 19.6709C0.750768 19.9623 0.117464 19.4264 0.268798 18.8238L0.299335 18.7282L3.69362 10L0.299335 1.27187L3.69362 10ZM2.4021 2.54044L5.01109 9.24944L11.6387 9.25003C12.0184 9.25003 12.3322 9.53219 12.3818 9.89826L12.3887 10C12.3887 10.3797 12.1065 10.6935 11.7404 10.7432L11.6387 10.75L5.01109 10.7494L2.4021 17.4596L17.3213 10L2.4021 2.54044Z" fill="#060F27"/>
</svg>
