<svg width="25" height="22" viewBox="0 0 25 22" fill="none" xmlns="http://www.w3.org/2000/svg">
<g filter="url(#filter0_d_1_224)">
<path d="M12.5127 0.25C13.2466 0.25846 13.9777 0.343262 14.6942 0.503038C15.0069 0.572785 15.2408 0.833511 15.2763 1.15196L15.4465 2.67881C15.5235 3.37986 16.1155 3.91084 16.8211 3.91158C17.0108 3.91188 17.1984 3.87238 17.3737 3.79483L18.7743 3.17956C19.0656 3.05159 19.406 3.12136 19.6234 3.35362C20.6356 4.43464 21.3894 5.73115 21.8282 7.14558C21.9228 7.45058 21.8139 7.78203 21.5568 7.9715L20.3154 8.88659C19.9612 9.14679 19.7521 9.56001 19.7521 9.99946C19.7521 10.4389 19.9612 10.8521 20.3161 11.1129L21.5587 12.0283C21.8158 12.2177 21.9248 12.5492 21.8302 12.8543C21.3916 14.2685 20.6382 15.5649 19.6266 16.6461C19.4093 16.8783 19.0693 16.9483 18.778 16.8206L17.3716 16.2045C16.9693 16.0284 16.5072 16.0542 16.127 16.274C15.7468 16.4937 15.4938 16.8812 15.4454 17.3177L15.2764 18.8444C15.2415 19.1592 15.0126 19.4182 14.7045 19.4915C13.2561 19.8361 11.747 19.8361 10.2985 19.4915C9.99039 19.4182 9.76153 19.1592 9.72667 18.8444L9.55785 17.32C9.50826 16.8843 9.25483 16.498 8.87491 16.279C8.495 16.06 8.03369 16.0343 7.63269 16.2094L6.22606 16.8256C5.93471 16.9533 5.59452 16.8833 5.37727 16.6509C4.36511 15.5685 3.61168 14.2705 3.17369 12.8548C3.07935 12.5499 3.18835 12.2186 3.44533 12.0293L4.68867 11.1133C5.04281 10.8531 5.25196 10.4399 5.25196 10.0005C5.25196 9.56101 5.04281 9.14779 4.6882 8.88725L3.44565 7.97285C3.18828 7.78345 3.07918 7.45178 3.17386 7.14658C3.61261 5.73215 4.36643 4.43564 5.37861 3.35462C5.59608 3.12236 5.93643 3.05259 6.22773 3.18056L7.62811 3.79572C8.03105 3.97256 8.49429 3.94585 8.87626 3.72269C9.25658 3.50209 9.50977 3.11422 9.55866 2.67764L9.72873 1.15196C9.76425 0.83335 9.99835 0.572541 10.3113 0.502942C11.0286 0.34342 11.7604 0.258654 12.5127 0.25ZM12.5002 6.99995C10.8433 6.99995 9.50018 8.3431 9.50018 9.99995C9.50018 11.6568 10.8433 13 12.5002 13C14.157 13 15.5002 11.6568 15.5002 9.99995C15.5002 8.3431 14.157 6.99995 12.5002 6.99995Z" fill="#B2B7C7"/>
</g>
<defs>
<filter id="filter0_d_1_224" x="-0.859863" y="0.25" width="26.7236" height="27.5" filterUnits="userSpaceOnUse" color-interpolation-filters="sRGB">
<feFlood flood-opacity="0" result="BackgroundImageFix"/>
<feColorMatrix in="SourceAlpha" type="matrix" values="0 0 0 0 0 0 0 0 0 0 0 0 0 0 0 0 0 0 127 0" result="hardAlpha"/>
<feOffset dy="4"/>
<feGaussianBlur stdDeviation="2"/>
<feComposite in2="hardAlpha" operator="out"/>
<feColorMatrix type="matrix" values="0 0 0 0 0 0 0 0 0 0 0 0 0 0 0 0 0 0 0.25 0"/>
<feBlend mode="normal" in2="BackgroundImageFix" result="effect1_dropShadow_1_224"/>
<feBlend mode="normal" in="SourceGraphic" in2="effect1_dropShadow_1_224" result="shape"/>
</filter>
</defs>
</svg>
