<svg width="21" height="22" viewBox="0 0 21 22" fill="none" xmlns="http://www.w3.org/2000/svg">
<path d="M8.75 3.25C9.16421 3.25 9.5 3.58579 9.5 4V12H17.5C17.8797 12 18.1935 12.2822 18.2432 12.6482L18.25 12.75C18.25 17.7206 14.2206 21.25 9.25 21.25C4.27944 21.25 0.25 17.2206 0.25 12.25C0.25 7.27944 3.77944 3.25 8.75 3.25ZM11.75 0.75C16.7206 0.75 20.75 4.77944 20.75 9.75C20.75 10.1642 20.4142 10.5 20 10.5H11.75C11.3358 10.5 11 10.1642 11 9.75V1.5C11 1.08579 11.3358 0.75 11.75 0.75Z" fill="#B2B7C7"/>
</svg>
